<svg id="Layer_1" data-name="Layer 1" xmlns="http://www.w3.org/2000/svg" viewBox="0 0 1920 660"><defs><style>.cls-1{fill:#0393e4;}.cls-2{fill:#97cf0d;}</style></defs><title>CEDEH LOGO</title><ellipse class="cls-1" cx="336.38" cy="326.76" rx="142.28" ry="142.51"/><path class="cls-2" d="M588,336.55c0,139-112.89,252-251.64,252S84.76,475.53,84.76,336.55a249.27,249.27,0,0,1,64.62-168c0-.59-.17-1.15-.17-1.74A26.16,26.16,0,1,1,175.37,193c-.19,0-.36-.06-.54-.06A214.21,214.21,0,0,0,120,336.55C120,456,217.09,553.26,336.38,553.26S552.76,456,552.76,336.55A214.21,214.21,0,0,0,498,192.93c-.19,0-.35.06-.54.06a26.2,26.2,0,1,1,26.16-26.2c0,.59-.14,1.15-.18,1.74A249.23,249.23,0,0,1,588,336.55Zm84.62,0C672.64,150.84,521.8-.25,336.38-.25S.12,150.84.12,336.55c0,132.79,76.2,250.55,195.61,305.51a26.16,26.16,0,1,0,14-32.4C103.25,560.3,35.38,455.11,35.38,336.55c0-166.25,135-301.48,301-301.48s301,135.23,301,301.48c0,118.56-67.87,223.75-174.31,273.11a26.21,26.21,0,1,0,14,32.4C596.45,587.1,672.64,469.34,672.64,336.55Z"/><path class="cls-1" d="M942.71,105.39v87.32Q926.32,174.47,910,166a74.35,74.35,0,0,0-34.89-8.51q-34.39,0-55.68,23.52t-21.3,61.38q0,35.26,21.7,58.48t55.28,23.23A74.12,74.12,0,0,0,910,315.56q16.31-8.51,32.69-26.93v87.51A190.22,190.22,0,0,1,904.92,390a159.05,159.05,0,0,1-38,4.6,163.26,163.26,0,0,1-44.28-5.7,126.24,126.24,0,0,1-37.29-17.34q-32.79-22-50-55.46t-17.19-75.3q0-33.65,10.89-61.18a149.45,149.45,0,0,1,32.89-50,136.92,136.92,0,0,1,46.89-32Q835,87,866.93,87a159.05,159.05,0,0,1,38,4.6A190.85,190.85,0,0,1,942.71,105.39Z"/><path class="cls-1" d="M959,387.16V94h179.35v64.29H1036.81v50.86h95.78V272h-95.78v49.47h101.57v65.68Z"/><path class="cls-1" d="M1162.49,387.16V94h61q68.18,0,96.47,6.42t49.69,21.42a125.43,125.43,0,0,1,42.18,49.76q14.4,30.35,14.4,69.2T1411.82,310a125.29,125.29,0,0,1-42.18,49.76,137.77,137.77,0,0,1-48.39,21.13q-27.2,6.3-84.38,6.31h-74.38Zm79-65.68h13.4q47,0,68.58-19.33T1345,240.77q0-42.06-21.59-61.69t-68.58-19.62h-13.4Z"/><path class="cls-1" d="M1447.54,387.16V94h179.35v64.29H1525.32v50.86h95.78V272h-95.78v49.47h101.57v65.68Z"/><path class="cls-1" d="M1651,387.16V94h79.78V207.91h106.37V94h80V387.16h-80V267.81H1730.79V387.16Z"/><path class="cls-1" d="M715.2,567V429.46h46v18.05H736.11v40H760v17.67H736.11V549h26.07V567Z"/><path class="cls-1" d="M780.47,567V429.46h20.91V549.19h26.46V567Z"/><path class="cls-1" d="M841.45,567V429.46h46v18.05H862.36v40h23.89v17.67H862.36V549h26.07V567Z"/><path class="cls-1" d="M906.73,567V429.46h26L952.22,530l18.35-100.51h26.14V567H978.06V515.74l.78-47.06-18.49,97.71H943.72l-19.27-97.71.78,47.06V567Z"/><path class="cls-1" d="M1019,567V429.46h46v18.05H1039.9v40h23.88v17.67H1039.9V549H1066V567Z"/><path class="cls-1" d="M1084.26,567V429.46h16.39l29.1,82.53-1.48-37.52v-45h18.81V567h-14.83l-29.89-85.43,1.18,36.1V567Z"/><path class="cls-1" d="M1176.31,567V447.58h-16.08V429.46h52.36v18.12h-15.45V567Z"/><path class="cls-1" d="M1219.49,567l19.59-137.56h27.63L1287.54,567H1268l-3.27-24.54h-22.17l-3,24.54Zm43.08-41.36-9.21-69.08h-.31l-8.43,69.08Z"/><path class="cls-1" d="M1331.12,502.38l-6.71-.32v65h-20.92V429.46h34.58q10.76,0,16.07,4.32a20.73,20.73,0,0,1,7,12.12,99.59,99.59,0,0,1,1.68,20.32q0,12.55-2.65,19.12a14.77,14.77,0,0,1-9.83,8.82q7.08,1.26,9.9,9.63T1363,538.6q0,26.46.77,28.42H1342.9q-.78-1.57-.78-49.33,0-9.14-2.18-12.16T1331.12,502.38Zm-6.64-16.57h8.35c2.66,0,4.62-.61,5.9-1.8s2.16-3.26,2.65-6.17a88.36,88.36,0,0,0,.74-13.38v-.85q0-11.17-1.87-14.62t-8.66-3.44h-7.11Z"/><path class="cls-1" d="M1396.4,567V512.07l-23-82.61h20l13.59,51.41h.31l12.09-51.41h19.9l-21.93,82.61V567Z"/><path class="cls-1" d="M1479.34,528.33V516.05h19.82v13.83c0,7.68.66,13,1.95,16.15s3.75,4.64,7.34,4.64,6-1.27,7.14-3.82,1.75-6.73,1.75-12.5a34.3,34.3,0,0,0-3.11-15.12,53.46,53.46,0,0,0-9.91-13.49l-10.15-10.48a62.54,62.54,0,0,1-11-15.4,41.07,41.07,0,0,1-4-18.43q0-17.07,6.56-25.33t22.56-8.28q16,0,21.65,9.64t5.66,28.19v8.51h-19.28V464.3q0-10-1.71-14.33a6.49,6.49,0,0,0-6.6-4.35q-4.87,0-7,3.3t-2.15,9.84q0,6.56,2.19,10.48a56.19,56.19,0,0,0,7.88,10l11.31,12.28a72.29,72.29,0,0,1,12.84,18.68,49,49,0,0,1,4.33,20.63q0,19.32-6.47,28.54t-22.68,9.23q-16.18,0-22.55-10.3T1479.34,528.33Z"/><path class="cls-1" d="M1605.18,559q-7.11,9.57-22.33,9.58t-22.74-10.21q-7.53-10.2-7.53-29.35V469.08q0-30.7,16.07-38.39a33.52,33.52,0,0,1,14.36-2.8q29,0,29,36.57v18.92h-20.22V465.8c0-7.1-.6-12.15-1.79-15.21s-3.54-4.57-7-4.57a7.27,7.27,0,0,0-7.25,4.85q-2,4.85-2,14.85V530c0,7.4.65,12.68,1.95,15.87a7.65,7.65,0,0,0,14.2-.09q2-4.83,2-16V510h20.52V529.5Q1612.27,549.43,1605.18,559Z"/><path class="cls-1" d="M1630.89,567V429.46h20.91v55.63h18.73V429.46h20.91V567h-20.91V503.08H1651.8V567Z"/><path class="cls-1" d="M1765.45,558.64q-7.17,9.95-23,10t-23.18-10q-7.38-10-7.37-30.05V465.65q0-37.83,30.82-37.83,15.91,0,22.91,9.61t7,28.22v62.91Q1772.64,548.72,1765.45,558.64Zm-30.62-13q1.83,4.77,7.53,4.77t7.49-4.89q1.8-4.89,1.8-16.76V464.7c0-6.52-.61-11.26-1.84-14.26s-3.61-4.5-7.18-4.5-6.05,1.5-7.49,4.5-2.14,7.72-2.14,14.18V528.8C1733,536.88,1733.61,542.49,1734.83,545.68Z"/><path class="cls-1" d="M1845,558.64q-7.17,9.95-23,10t-23.18-10q-7.38-10-7.37-30.05V465.65q0-37.83,30.82-37.83,15.92,0,22.91,9.61t7,28.22v62.91Q1852.19,548.72,1845,558.64Zm-30.62-13q1.81,4.77,7.52,4.77t7.49-4.89q1.8-4.89,1.8-16.76V464.7c0-6.52-.61-11.26-1.84-14.26s-3.61-4.5-7.17-4.5-6.06,1.5-7.5,4.5-2.14,7.72-2.14,14.18V528.8C1812.55,536.88,1813.16,542.49,1814.39,545.68Z"/><path class="cls-1" d="M1872.75,567V429.46h20.91V549.19h26.46V567Z"/></svg>